<svg id="Layer_2" data-name="Layer 2" xmlns="http://www.w3.org/2000/svg" xmlns:xlink="http://www.w3.org/1999/xlink" viewBox="0 0 400 300"><defs><linearGradient id="linear-gradient" x1="141.78" y1="213.47" x2="183.44" y2="140.99" gradientUnits="userSpaceOnUse"><stop offset="0" stop-opacity="0"/><stop offset="1" stop-color="#2e3192"/></linearGradient><linearGradient id="linear-gradient-2" x1="136.27" y1="149.11" x2="163.33" y2="116.75" gradientUnits="userSpaceOnUse"><stop offset="0" stop-opacity="0"/><stop offset="0.99" stop-color="#1a1a1a"/></linearGradient><linearGradient id="linear-gradient-3" x1="334.4" y1="113.26" x2="328.66" y2="118.74" gradientUnits="userSpaceOnUse"><stop offset="0.01" stop-color="#a91d5c"/><stop offset="1" stop-color="#f15a24"/></linearGradient></defs><title>cc</title><polygon points="21.66 170.55 226.84 288.9 363.5 208.93 158.84 90.77 21.66 170.55" fill="#4e508b"/><polyline points="256.74 184.76 156 245.27 58.13 187.71 153.83 129.68" opacity="0.69" fill="url(#linear-gradient)"/><polyline points="217.45 153.44 217.45 198.32 220.82 198.32 221.55 152.28" fill="gray"/><polyline points="236.63 136.17 243.38 184.97 240.01 184.97 232.95 137.98" fill="gray"/><path d="M168.51,170.3s-3.14,10.15-3.84,11.18-11,7.74-10.83,9.81,4.06,2.92,6.49,2.75,16.4-5.91,17.27-7.6.87-16.14.87-16.14Z" fill="#5c2d1d"/><path d="M185.08,182.18s-3.14,10.15-3.84,11.18-11,7.74-10.83,9.81,4.06,2.92,6.49,2.75,16.4-5.91,17.27-7.6.87-16.14.87-16.14Z" fill="#5c2d1d"/><path d="M238.46,89.78c-.89,2.47-5.95,39.9-5.95,39.9L227.44,128l6.62-38.43" fill="gray"/><polyline points="236.63 136.17 236.72 130.14 231.3 131.97 232.95 137.98" fill="#a9cbf8"/><path d="M224.38,126.84S238,132,236.63,137s-12.22,17.46-19.18,16.39-15.45-7-15.45-7" fill="#4a42a4"/><path d="M224.38,120.68s13.61,5.14,12.25,10.21-12.22,17.46-19.18,16.39-15.45-7-15.45-7" fill="#a6aced"/><path d="M229.77,73.68s13.14,3.23,14.48,10.68,1.72,21.2-16.95,15.86-9.85-19.15-9.85-19.15" fill="#a6aced"/><path d="M212.23,89.58s4.64,19.21,1.2,29.49-23,18.52-23,18.52l-8.24,41.35c-10.95,3.39-20.36-2.37-20.36-2.37s2.28-36.49,5.75-45.75,30.38-27.45,30.38-27.45" fill="#895851"/><path d="M213,114s-26.91,18.19-30.38,27.45-5.75,45.75-5.75,45.75,9.41,5.76,20.36,2.37l8.24-41.35s14-3.94,17.43-14.22,2-25.9,2-25.9" fill="#895851"/><path d="M223.71,114.39c4.59-11,6.58-39.58,3.73-43-5.89-7.14-18.31-6.27-18.31-6.27s-7.22-4.25-13.25.78c-4.5,3.75-1.3,26.76,0,41.38C203.74,114.4,212.43,116.4,223.71,114.39Z" fill="#68e1fd"/><path d="M204.42,117.68c-4.84,4.76-10,9.35-14.54,14.42-3.91,4.41-5.45,10-7,15.55-3.54,12.91-5.12,26.24-6.69,39.49-.1.8,1.18.8,1.28,0,1.51-12.75,3-25.56,6.33-38,1.62-6.1,3.23-12.17,7.67-16.92s9.22-9.12,13.82-13.65C205.91,118,205,117.1,204.42,117.68Z" fill="#5c2d1d"/><path d="M257.54,149.22l2.5-1.35L145.19,83.07,70.48,124.81l1,.58v55.08a.56.56,0,0,0,1.12,0V126L183.1,189.6l.27-.14v39.67a.56.56,0,0,0,1.12,0V188.85l72.27-39.2s0,0,0,0v35.06a.56.56,0,0,0,1.12,0V149.7A.49.49,0,0,0,257.54,149.22Z" fill="#68e1fd"/><path d="M257.54,149.22l2.5-1.35L145.19,83.07,70.48,124.81l1,.58v55.08a.56.56,0,0,0,1.12,0V126L183.1,189.6l.27-.14v39.67a.56.56,0,0,0,1.12,0V188.85l72.27-39.2s0,0,0,0v35.06a.56.56,0,0,0,1.12,0V149.7A.49.49,0,0,0,257.54,149.22Z" fill="#bc532a"/><polygon points="50.15 94.74 46.96 93.12 50.53 89.64 50.15 94.74" fill="#d64338"/><polygon points="94 24.92 90.81 23.3 89.56 27.49 94 24.92" fill="#d64338"/><polygon points="90.81 23.3 46.96 48.62 46.96 93.12 90.81 66.79 90.81 23.3" fill="#d64338"/><polygon points="94 24.92 50.15 50.24 50.15 94.74 94 68.41 94 24.92" fill="#ff6753"/><polygon points="89.08 32.76 55.07 52.39 55.07 86.91 89.08 66.49 89.08 32.76" fill="#fff"/><path d="M89.08,61.4s-2.63-9-6.18-6.4-.66,12.35-4.7,10.34S73.83,53.21,68.89,55,67,66.4,63.34,65.25s-1.93-14-8.28-12.85V86.91l34-20.42Z" fill="#68e1fd"/><path d="M142.31,122.77l-36.09,19.8c6,3.75,30.29,16.61,36.12,20.66l37.29-23.51L173.5,125Z" opacity="0.32" fill="url(#linear-gradient-2)"/><polyline points="172.11 144.03 198.39 128.96 164.15 109.57 137.3 123.18" fill="#b3b3b3"/><path d="M165.31,114.29s6.89,30.12,6.8,29.75-34-18.33-34.26-19-9-31.2-9-31.2Z" fill="#fff"/><polygon points="155.39 108.72 162.46 104.52 170.9 111.44 164.55 114.06 155.39 108.72" fill="#ffe0ce"/><path d="M159.3,103.95s9.37,3.25,8.59,11.8c0,0,14.61-6,17.85-9.8s10.13-12.08,10.13-12.08v-28s-17.67,27-21.5,30.29C171.31,98.78,159.3,103.95,159.3,103.95Z" fill="#68e1fd"/><path d="M207.66,61.27c0,2.36.06,4.71-.07,7.06.43,1.08,1,1.83,1.9,1.74,2.85-.3,6.24-4.5,6.24-4.5l.5-6.55Z" fill="#f9c7af"/><path d="M221.53,45c-1.77-3.77-5.28-4.49-8.9-3.8A8,8,0,0,0,209.89,40c-3-.71-6.79.23-8.66,2.75a5.91,5.91,0,0,0-2.9.37c-2.72,1.13-3.05,4-2.42,6.49a3,3,0,0,0,.1.29c.29,4.44,4.67,6.29,4.67,6.29l14.12,6.94a10.21,10.21,0,0,0,3.75-3.47,5.3,5.3,0,0,0,.58-1.83,2.12,2.12,0,0,0,.28-.28C222.18,54.1,223.47,49.15,221.53,45Z" fill="#4c4c4c"/><path d="M200.34,52.66c.36,1.48,2.9,15.58,9.35,14.4s6.86-10.57,6.86-10.57-5.85-1.56-6.32-3.72-.23-3.11-3.1-3.69S199.74,50.19,200.34,52.66Z" fill="#ffe0ce"/><polygon points="194.7 95.27 193.78 81.5 189.56 101.42 194.7 95.27" fill="#4c4c4c"/><path d="M195.19,118.74a4.74,4.74,0,0,0-1.61.48c-1.53.73-3.22,1.22-4.74,2a15.54,15.54,0,0,0-5.95,6.14c-.31.66-1.61,3.07-.94,3.75s2.2,0,2.2,0-.08,1.38.41,1.7,2-.8,2-.8.67,1.69,1.6,1.29,2.58-2.82,2.58-2.82-.18,1.85.64,1.85,4.29-4.71,4.29-4.71l7.35-3.78s-2.17-2.31-2.39-2.52a11.14,11.14,0,0,0-3.45-2.3A4.34,4.34,0,0,0,195.19,118.74Z" fill="#ffe0ce"/><path d="M193.93,124.85a16.42,16.42,0,0,0-3.66,6.16c-.09.28.36.4.45.12a15.86,15.86,0,0,1,3.54-6C194.47,125,194.14,124.64,193.93,124.85Z" fill="#5c2d1d"/><path d="M191.78,123.44a17.75,17.75,0,0,0-5.42,8.9.23.23,0,0,0,.45.12,17.32,17.32,0,0,1,5.3-8.69C192.33,123.56,192,123.24,191.78,123.44Z" fill="#5c2d1d"/><path d="M189.59,122.95a18.66,18.66,0,0,0-5.65,8.29c-.1.28.36.4.45.12a18.21,18.21,0,0,1,5.53-8.09C190.15,123.08,189.82,122.75,189.59,122.95Z" fill="#5c2d1d"/><path d="M227.87,94.89s-2.69,17-6.32,20.85S202,126.6,202,126.6s-4-6.91-8.22-8.54c0,0,16.24-9,16.64-10.69" fill="#68e1fd"/><path d="M214.52,83.54c-.27,3.66-.65,7.3-1.19,10.93-.46,3.11-.73,6.66-1.8,9.63-1.19,3.33-5.71,5.31-8.59,7.15q-4.55,2.91-9.18,5.68a.63.63,0,0,0,.64,1.09q5.4-3.25,10.69-6.66c2.39-1.55,6-3.14,7.29-5.85,1.38-2.95,1.59-6.94,2.08-10.12.6-3.93,1-7.88,1.32-11.84C215.85,82.73,214.58,82.74,214.52,83.54Z" fill="#4c4c4c"/><polygon points="128.88 124.69 105.47 138.27 88.24 128.32 111.43 114.72 128.88 124.69" fill="#fff"/><polygon points="187.11 180.31 165.39 167.61 165.39 161.21 187.14 173.76 187.11 180.31" fill="#f4cc25"/><path d="M216.7,156.63v6.45s-29.64,17.38-29.59,17.23,0-6.54,0-6.54Z" fill="#edcd32"/><polygon points="216.7 156.63 187.14 173.76 165.39 161.21 194.67 144.03 216.7 156.63" fill="#f4dd53"/><polygon points="170.11 158.44 166.93 157.89 170.48 164.14 170.11 158.44" fill="#f4cc25"/><polygon points="170.48 164.14 165.39 161.21 167.94 159.43 170.48 164.14" fill="#e2b80a"/><polyline points="216.7 159.56 187.26 176.53 165.39 164.42" fill="none" stroke="#f7931e" stroke-miterlimit="10" opacity="0.56"/><polyline points="216.49 161.79 187.05 178.76 165.18 166.64" fill="none" stroke="#f7931e" stroke-miterlimit="10" opacity="0.56"/><polygon points="123.86 113.53 108.4 122.49 97.03 115.92 112.34 106.94 123.86 113.53" fill="#f9d2c0"/><polygon points="187.11 173.44 165.39 160.74 165.39 154.34 187.14 166.89 187.11 173.44" fill="#f2a755"/><path d="M216.7,149.76v6.45s-29.64,17.38-29.59,17.23,0-6.54,0-6.54Z" fill="#f2a755"/><polygon points="216.7 149.76 187.14 166.89 165.39 154.34 194.67 137.16 216.7 149.76" fill="#f2a755"/><polygon points="170.11 151.57 166.93 151.02 170.48 157.27 170.11 151.57" fill="#f7b36f"/><polygon points="170.48 157.27 165.39 154.34 167.94 152.56 170.48 157.27" fill="#db8835"/><polyline points="216.7 152.69 187.26 169.66 165.39 157.55" fill="none" stroke="#f7931e" stroke-miterlimit="10" opacity="0.56"/><polyline points="216.49 154.91 187.05 171.88 165.18 159.77" fill="none" stroke="#f7931e" stroke-miterlimit="10" opacity="0.56"/><polygon points="187.11 167.42 165.39 154.72 165.39 148.32 187.14 160.88 187.11 167.42" fill="#f4cc25"/><path d="M216.7,143.74v6.45s-29.64,17.38-29.59,17.23,0-6.54,0-6.54Z" fill="#edcd32"/><polygon points="216.7 143.74 187.14 160.88 165.39 148.32 194.67 131.14 216.7 143.74" fill="#f4dd53"/><polygon points="170.11 145.55 166.93 145 170.48 151.26 170.11 145.55" fill="#f4cc25"/><polygon points="170.48 151.26 165.39 148.32 167.94 146.54 170.48 151.26" fill="#e2b80a"/><polyline points="216.7 146.67 187.26 163.64 165.39 151.53" fill="none" stroke="#f7931e" stroke-miterlimit="10" opacity="0.56"/><polyline points="216.49 148.9 187.05 165.87 165.18 153.76" fill="none" stroke="#f7931e" stroke-miterlimit="10" opacity="0.56"/><polyline points="305.34 105.69 322.45 96.59 363.5 120.29 363.5 209.1 346.59 218.87" fill="#68e1fd"/><polyline points="305.34 105.69 322.45 96.59 363.5 120.29 363.5 209.1 346.59 218.87" fill="#4c4c4c" opacity="0.22"/><path d="M346.59,218.87c-1.29-.11,0-89.37,0-89.37l-41.25-23.81v90Z" fill="#68e1fd"/><polyline points="305.34 122.48 346.39 145.58 363.5 136.86" fill="none" stroke="#f2f2f2" stroke-miterlimit="10" stroke-width="0.25"/><polyline points="305.34 145.58 346.39 168.68 363.5 159.97" fill="none" stroke="#f2f2f2" stroke-miterlimit="10" stroke-width="0.25"/><polyline points="305.34 166.37 346.39 189.48 363.5 180.76" fill="none" stroke="#f2f2f2" stroke-miterlimit="10" stroke-width="0.25"/><polyline points="305.34 187.35 346.39 210.46 363.5 201.74" fill="none" stroke="#f2f2f2" stroke-miterlimit="10" stroke-width="0.25"/><polygon points="346.67 129.44 363.54 120.14 322.37 96.65 305.3 105.84 346.67 129.44" fill="#68e1fd"/><polygon points="346.67 129.44 363.54 120.14 322.37 96.65 305.3 105.84 346.67 129.44" fill="#fff" opacity="0.25"/><ellipse cx="338.81" cy="132.44" rx="2.49" ry="3.01" transform="translate(-24.92 138.36) rotate(-22.28)" fill="#fff"/><path d="M310.38,117.76l21.93,12.06c.42.23.8-.41.38-.65l-21.93-12.06c-.42-.23-.8.41-.38.65Z" fill="#f2f2f2"/><ellipse cx="338.81" cy="152.64" rx="2.49" ry="3.01" transform="translate(-32.58 139.87) rotate(-22.28)" fill="#fff"/><path d="M310.38,138,332.31,150c.42.23.8-.41.38-.65l-21.93-12.06c-.42-.23-.8.41-.38.65Z" fill="#f2f2f2"/><ellipse cx="338.81" cy="174.71" rx="2.49" ry="3.01" transform="translate(-40.95 141.52) rotate(-22.28)" fill="#fff"/><path d="M310.38,160l21.93,12.06c.42.23.8-.41.38-.65l-21.93-12.06c-.42-.23-.8.41-.38.65Z" fill="#f2f2f2"/><ellipse cx="338.81" cy="194.75" rx="2.49" ry="3.01" transform="translate(-48.54 143.02) rotate(-22.28)" fill="#fff"/><path d="M310.38,180.07l21.93,12.06c.42.23.8-.41.38-.65l-21.93-12.06c-.42-.23-.8.41-.38.65Z" fill="#f2f2f2"/><polyline points="341.87 113.98 331.74 119.87 324.36 115 335.08 108.22" opacity="0.32" fill="url(#linear-gradient-3)"/><path d="M341.91,102.6c-.31-.68-1.71-1.19-3.38-1.19s-3.13.54-3.4,1.24c-2,2.75-3.9,7.23-1.48,10.23a6.16,6.16,0,0,0,4.75,2.15h.29a6.16,6.16,0,0,0,4.75-2.15C345.86,109.86,343.89,105.35,341.91,102.6Z" fill="#a6aced"/><ellipse cx="338.53" cy="102.89" rx="3.45" ry="1.48" opacity="0.5"/><path d="M342.55,90.35a28.52,28.52,0,0,0-3.83,11.81,82.48,82.48,0,0,0-1.38-15c0-.18-.3-.1-.27.07A82.08,82.08,0,0,1,338.43,104a.13.13,0,0,0,.18.13s0,.08,0,.12a.14.14,0,0,0,.28,0,28.22,28.22,0,0,1,3.91-13.78A.14.14,0,0,0,342.55,90.35Z" fill="#2c9135"/><path d="M340.37,94.94s2.13-6.86,6.71-9.39a3.15,3.15,0,0,0-.49,2.47c.43,1.11,1.11,3.09-1.05,4.21s-3.4,0-3.22,2.17,1,3.22-.34,4.27-2.57,2-3,4.23C338.95,102.89,339.47,97.22,340.37,94.94Z" fill="#2c9135"/><path d="M338.34,94.22s-.89-10.54-2.74-13.2a4.9,4.9,0,0,1-.52,3c-.8,1.52-1.67,2.05-1.2,4s2.35,1.59,2.17,3.58-1.75,1.61-1,4.12a8.88,8.88,0,0,0,3.46,4.15" fill="#2c9135"/></svg>