<svg id="Layer_1" data-name="Layer 1" xmlns="http://www.w3.org/2000/svg" viewBox="0 0 400 300"><title>91-100</title><path d="M327.15,187.29,154.07,287.45a11.57,11.57,0,0,1-11.56,0L14.05,213.68,190.91,111.57Z" fill="#f2f2f2"/><polygon points="321.49 112.82 321.49 85.04 207.02 18.26 207.02 76.33 207.04 76.35 207.04 104.13 321.52 170.54 321.52 112.84 321.49 112.82" fill="#68e1fd"/><polyline points="163.14 151.34 185.2 164.98 185.48 170.68 162.21 155.33" fill="#e27623"/><path d="M162.85,142l-11.79,33.35,1.66,1.12a10.77,10.77,0,0,0,1.35-.71c.53-.35,14.72-34.88,14.72-34.88" fill="#e27623"/><polyline points="185.07 136.92 190.1 157.45 186.76 197.58 185.25 198.43 183.34 197.05 184.63 157.05 180.22 136.59" fill="#e27623"/><path d="M160,132.76s-1,4.4.34,7,5.85-3.29,5.85-3.29" fill="#ffb469"/><polyline points="182.99 109.97 180.94 126.17 185.06 128.68 187.06 111.3" fill="#ca6b00"/><polyline points="208.93 123.81 210.26 146 210.91 178.54 208.97 179.51 207.2 178.22 205.29 146.16 204.08 123.47" fill="#e27623"/><path d="M205.85,126.35c1.18.45,3.88-1.26,4.74-2.42,4.69-6.35,4.1-15.46-3.22-20.19-3.24-2.1-6.59-4.19-9.81-6.34-2.86-1.91-5.92-3.58-8.67-5.63a6.63,6.63,0,0,0-1.15-.74,4.11,4.11,0,0,0-4.44,1.18" fill="#ffb469"/><path d="M206.18,126.09c2,.07,3.4-2.54,4.11-4.09,2-4.25,2.86-12.52-1.94-15.35a.6.6,0,0,1-.32-.5L198.87,100l-7.08-4.77c-1.24-.83-2.4-1.77-3.64-2.61s-2.45-1.8-3.92-1-2,2.58-2.32,4.21a26.42,26.42,0,0,0-.21,11.45,10,10,0,0,0,4.52,5.77l6.58,4.45,12.2,8.21a2.71,2.71,0,0,0,.63.35A1.9,1.9,0,0,0,206.18,126.09Z" fill="#fcbd4c"/><path d="M206.34,143.79l.37.25a9.56,9.56,0,0,1,2.69,2.34c1.76,2.55-.3,5.18-2.33,6.75-5.49,4.23-13.58,7.45-20.47,5.26A62.26,62.26,0,0,1,170,149.65c-4.2-2.94-9.46-6.5-10.23-12a7.89,7.89,0,0,1,2.55-6.63c11.89-12,26.53,1.06,37,8.06Z" fill="#ffb469"/><path d="M210.12,144.55a14.64,14.64,0,0,1-.1,4.68,13.17,13.17,0,0,1-3.47,4.3c-1.35.94-.08-6.2-.08-6.2" fill="#ffb469"/><path d="M206.55,140.73l.37.25a9.56,9.56,0,0,1,2.69,2.34c1.76,2.55-.3,5.18-2.33,6.75-5.49,4.23-13.58,7.45-20.47,5.26a62.26,62.26,0,0,1-16.61-8.74c-4.2-2.94-9.46-6.5-10.23-12a7.89,7.89,0,0,1,2.55-6.63c11.89-12,26.53,1.06,37,8.06Z" fill="#fcbd4c"/><path d="M180.46,98.51s-3.44,17-4.43,20.33-12.17,7.73-10,10.09,9.58,5.32,9.58,5.32,9.77-10.43,10.86-13.25" fill="#5e331f"/><path d="M149.51,185.57a21.33,21.33,0,0,1,4.41-2.29c1.61-.57,6.46-5.5,6.84-6s1.31-2.95,2.13-3.06,2.57,1,2.57,1,2.71-2.43,4.84-1.45c0,0,2,1.22,1.51,7a1.36,1.36,0,0,1,.18.16,23.64,23.64,0,0,1,0,2.75,7.73,7.73,0,0,1-3.57,2.85c-1.84.81-5.91,3.8-8.46,4.28a21.1,21.1,0,0,1-9-.87,3,3,0,0,1-1.82-2.55A2.59,2.59,0,0,1,149.51,185.57Z" fill="#e05e00"/><path d="M164.94,174.93s3.15-2.25,5.35-1.19,1.55,6.25,1.55,6.25-.23,3-3.93,4.46-3.22,3.06-8,4.19-9.71-.38-10.52-1.87,2.21-2.52,2.43-2.69,4.61-2.47,5.66-3.69,2.9-3.34,3.58-4.4,1-2,2.11-1.86A3.48,3.48,0,0,1,164.94,174.93Z" fill="#ffc019"/><path d="M155.13,182a.32.32,0,0,0,.37.29h.09a22.87,22.87,0,0,1,2.83,1.87.33.33,0,0,0,.5-.33q-.24-.79-.45-1.59a10.65,10.65,0,0,1,2.18.5.32.32,0,0,0,.25-.59h0a.46.46,0,0,1-.05-.12,4.14,4.14,0,0,0-.17-.44l-.36-.88a6.79,6.79,0,0,1,1.68.63c.35.19.7-.3.4-.51a11,11,0,0,0-.52-1.67,8.07,8.07,0,0,1,2.35.34c.4.12.61-.49.21-.61a9,9,0,0,0-2.85-.37,10.82,10.82,0,0,0-.61-1.1c-.22-.35-.8-.07-.58.29s.33.55.48.84c-.54,0-1.08.09-1.62.15a.34.34,0,0,0-.17,0,.26.26,0,0,0-.2.22.31.31,0,0,0,0,.21l.35.76a7.66,7.66,0,0,0-1.4,0l0,0a6.62,6.62,0,0,1-.49.49q.14.58.28,1.15a11.31,11.31,0,0,0-1.89.1h0C155.52,181.77,155.33,181.91,155.13,182Zm4.87-2-.32-.7c.5-.05,1-.1,1.49-.12a10.23,10.23,0,0,1,.46,1.3A7.59,7.59,0,0,0,160,180Zm-1.71,1.59q-.13-.5-.25-1a7,7,0,0,1,1.51,0l.27.64c.08.18.14.44.22.68A11.24,11.24,0,0,0,158.29,181.59Zm-1.61.61a10.33,10.33,0,0,1,1.1,0l.24.88C157.59,182.77,157.14,182.47,156.68,182.19Z" fill="#e05e00"/><path d="M191.35,121.49s4.84,14.24,3.12,16.58S177,151.46,175.7,152.78s-3,21.78-3,21.78c-4.36,2.33-9.57-.44-9.57-.44s-2.76-25.06.28-30,19.4-22.93,20.11-24.17" fill="#b76748"/><path d="M189.63,123.63c-.71,1.24-17.07,19.19-20.11,24.17s-.28,30-.28,30,5.21,2.77,9.57.44c0,0,1.66-20.46,3-21.78s17.29-12.21,18.77-14.71c4.56-7.72,1-18.35,1-18.35" fill="#b76748"/><path d="M187.59,84.24a.34.34,0,0,1,0,.69A.34.34,0,0,1,187.59,84.24Z" fill="#1c5028"/><path d="M203.63,127.19a43.72,43.72,0,0,0,1.48-9,95.09,95.09,0,0,0,.29-12.8,9.65,9.65,0,0,0-1.53-5.2c-2.62-3.4-10.27-7.8-14.58-8.48-10-1.57-10.16,13-10,19.11.09,2.69,1.28,10.07,4.73,12.89s14.32,6.49,16.63,6.65C202,130.4,202.95,128.81,203.63,127.19Z" fill="#5e331f"/><path d="M194.5,83.66l.72.05a.43.43,0,0,1-.06.86l-.72-.05A.43.43,0,0,1,194.5,83.66Z" fill="#1c5028"/><path d="M188.09,86.93a6.61,6.61,0,0,0,6.65,1.82c.54-.15.7.7.17.85a7.48,7.48,0,0,1-7.47-2.1C187.06,87.09,187.71,86.53,188.09,86.93Z" fill="#1c5028"/><path d="M185.41,81.15s0,10.68,2.7,11.37,5.7-.47,6.73-1.76,3.48-7.85,2.6-9.14S187,79.32,185.41,81.15Z" fill="#ffbe8d"/><path d="M195.55,89.3l0,5.27s-1.71,1.21-6.28-.66l-.45-3.08" fill="#ffbe8d"/><path d="M183.91,77.28a4.34,4.34,0,0,1,1.9-.16,4.2,4.2,0,0,1,1.61-2.22,4.4,4.4,0,0,1,4.6-.05,3.32,3.32,0,0,1,.67.55,3.92,3.92,0,0,1,3.11-.82A3.31,3.31,0,0,1,198.47,77a2.78,2.78,0,0,1,.06,1,3.16,3.16,0,0,1,2.67,2.41,3.13,3.13,0,0,1-.58,2.72,2.76,2.76,0,0,1,.41,3,3.07,3.07,0,0,1-2.59,1.76,2.93,2.93,0,0,1,0,1.58c-.65,1.22-2.2,1.64-3.64,1.87,0-.67,0-1.34,0-2a.72.72,0,0,0,0-.18,5.93,5.93,0,0,0,1.3-1.39c.5-.7.89-1.72.19-2.43a1.55,1.55,0,0,0-2.4.37,8.1,8.1,0,0,0-.45-1h0c-.56-1.75-2.32-2.06-4-2.18-2.62,1.16-6.38,1.86-7.19-1.42A3,3,0,0,1,183.91,77.28Z" fill="#bc4824"/><path d="M205.48,111.64s.93,12-2.66,19.45S191,141.16,191,141.16s-6.15-2.31-5.81-3.42,8.93-9.26,8.93-9.26l.68-11.32" fill="#5e331f"/><path d="M196.51,94.49l-1.11-1.76a18.52,18.52,0,0,1-4.11,1.74c-1.16.11-2.14-1.62-2.14-1.62s-1.36,1.58-1.21,1.87.14,4.87.31,4.67,2.46-1.87,2.46-1.87l-.23,2.69L197.33,95Z" fill="#b76748"/><polyline points="204.89 173.24 226.94 186.88 227.23 192.59 203.96 177.23" fill="#e27623"/><path d="M204.6,163.95,192.81,197.3l1.66,1.12a10.77,10.77,0,0,0,1.35-.71c.53-.35,14.72-34.88,14.72-34.88" fill="#e27623"/><polyline points="226.81 158.83 231.85 179.36 228.5 219.49 226.99 220.34 225.09 218.95 226.38 178.96 221.97 158.49" fill="#e27623"/><path d="M201.71,154.66s-1,4.4.34,7,5.85-3.29,5.85-3.29" fill="#ffb469"/><polyline points="224.73 131.88 222.69 148.08 226.8 150.58 228.8 133.21" fill="#ca6b00"/><polyline points="250.68 145.72 252.01 167.9 252.65 200.44 250.71 201.42 248.95 200.13 247.04 168.06 245.83 145.38" fill="#e27623"/><path d="M247.59,148.25c1.18.45,3.88-1.26,4.74-2.42,4.69-6.35,4.1-15.46-3.22-20.19-3.24-2.1-6.59-4.19-9.81-6.34-2.86-1.91-5.92-3.58-8.67-5.63a6.63,6.63,0,0,0-1.15-.74,4.11,4.11,0,0,0-4.44,1.18" fill="#ffb469"/><path d="M247.92,148c2,.07,3.4-2.54,4.11-4.09,2-4.25,2.86-12.52-1.94-15.35a.6.6,0,0,1-.32-.5l-9.16-6.17-7.08-4.77c-1.24-.83-2.4-1.77-3.64-2.61s-2.45-1.8-3.92-1-2,2.58-2.32,4.21a26.42,26.42,0,0,0-.21,11.45,10,10,0,0,0,4.52,5.77l6.58,4.45,12.2,8.21a2.71,2.71,0,0,0,.63.35A1.9,1.9,0,0,0,247.92,148Z" fill="#fcbd4c"/><path d="M248.09,165.7l.37.25a9.56,9.56,0,0,1,2.69,2.34c1.76,2.55-.3,5.18-2.33,6.75-5.49,4.23-13.58,7.45-20.47,5.26a62.26,62.26,0,0,1-16.61-8.74c-4.2-2.94-9.46-6.5-10.23-12a7.89,7.89,0,0,1,2.55-6.63c11.89-12,26.53,1.06,37,8.06Z" fill="#ffb469"/><path d="M251.87,166.46a14.64,14.64,0,0,1-.1,4.68,13.17,13.17,0,0,1-3.47,4.3c-1.35.94-.08-6.2-.08-6.2" fill="#ffb469"/><path d="M248.3,162.63l.37.25a9.56,9.56,0,0,1,2.69,2.34c1.76,2.55-.3,5.18-2.33,6.75-5.49,4.23-13.58,7.45-20.47,5.26A62.26,62.26,0,0,1,212,168.49c-4.2-2.94-9.46-6.5-10.23-12a7.89,7.89,0,0,1,2.55-6.63c11.89-12,26.53,1.06,37,8.06Z" fill="#fcbd4c"/><path d="M221.48,115.85s-5.29,21-9,25.22A95.47,95.47,0,0,1,200,152.6s3.66,2.08,10.17,1.86,13.57-10.68,15.67-13.92" fill="#cc6c62"/><path d="M219.25,145.22S205,150.86,204.14,158s7.56,20.17,7.56,20.17,6.33-5.57,11.55-5.93" fill="#5e331f"/><path d="M219.8,183.58c4.94-1.84,10-3.11,14.57-5.83,10.31-6.13,10.06-16.73,7.54-27.17v0c-.68-1.81-1.17-2.89-1.17-2.89l-1.22.21-.19-2.16-9.56.94-10.51-2.35s-3.47,20-5.8,41.92C215.55,185.3,217.65,184.37,219.8,183.58Z" fill="#5e331f"/><path d="M229,148.89c4,1,8.47,1.84,12.2-.34,6.18-26,1.65-34.1-9-37.19a9.66,9.66,0,0,0-10.67,4.48,259,259,0,0,0-2.23,29.38c0,.51,3.56,1.77,4,2a39.47,39.47,0,0,0,4.42,1.38Z" fill="#ffa197"/><path d="M227.43,111.92h0s-.61,5.57,3.63,3.92a35.44,35.44,0,0,0,5.18-2.52V110" fill="#cc6c62"/><path d="M224.75,100.15s-2.05,11.12,2.61,12.92,9-6.61,9-9.2C236.33,98.5,231,99,224.75,100.15Z" fill="#ffbe8d"/><path d="M251.42,128.54a3.55,3.55,0,0,0-.84-1.91c-1-1.1-2.49-1.58-3.32-2.81-1.35-2,.83-3.78,1-5.77.31-3.67-4.43-4.09-6.49-5.91a7.05,7.05,0,0,1-1.9-3.66c-1.18-4.23-1.43-9.43-5.55-12A8.92,8.92,0,0,0,230,95.3a8.18,8.18,0,0,0-5.15,1.1,5.44,5.44,0,0,0-2.32,4c-.07,1.15.28,3,1.69,3.15.92.11,1.39-.6,2-1.17s1-1.46,1.71-2.08a3,3,0,0,1,1.56-.81c2.35-.36.22,3.85.19,4.75a2,2,0,0,0,.4,1.36,2.7,2.7,0,0,0,1.42.8c1.13.31,3.08.89,2.39,2.49a29.18,29.18,0,0,1-1.74,2.44,4.87,4.87,0,0,0,.19,5.61,11.89,11.89,0,0,0,2.23,2,3.92,3.92,0,0,1,1.68,2.63c0,.06,0,.13,0,.19-.22,1.72-.94,3.9-.87,5.81a3.43,3.43,0,0,0,.49,2,6.06,6.06,0,0,0,1.42,1.82,9.54,9.54,0,0,0,9.08,1.85c1.55-.46,3.33-1,4.38-2.35A3.15,3.15,0,0,0,251.42,128.54Zm-3.74-10.43a3.86,3.86,0,0,0,0-.72,3.42,3.42,0,0,0-.12-.53A2.64,2.64,0,0,1,247.68,118.11Z" fill="#bc4824"/><ellipse cx="224.67" cy="106.35" rx="1.58" ry="1.83" fill="none" stroke="#42210b" stroke-miterlimit="10" stroke-width="0.25"/><ellipse cx="229.26" cy="106.7" rx="1.58" ry="1.83" fill="none" stroke="#42210b" stroke-miterlimit="10" stroke-width="0.25"/><path d="M227.79,106.23c0-.17-.25-.23-.39-.27a1.34,1.34,0,0,0-.35-.06q0-.22.09-.45c0-.18-.24-.25-.27-.07s-.08.37-.12.55h0c-.19.06-.78.39-.52.65a.14.14,0,0,0,.23-.14.49.49,0,0,1,.25-.2c-.05.22-.11.43-.18.65-.17.55-.52,1.11-.64,1.67s.2.56.6.66a.14.14,0,0,0,.07-.27c-.48-.12-.37-.38-.21-.76s.23-.56.32-.85.24-.77.33-1.16a1,1,0,0,1,.25,0,1.13,1.13,0,0,1,.27.08.13.13,0,0,0,.17.12h0A.15.15,0,0,0,227.79,106.23Z" fill="#42210b"/><path d="M229.47,109.48a2.24,2.24,0,0,1-1.74.73.14.14,0,0,0,0,.28,2.52,2.52,0,0,0,1.94-.81C229.79,109.54,229.59,109.35,229.47,109.48Z" fill="#42210b"/><path d="M230.32,130.47s-8.18,15.75-14.16,19.87l-6,4.12s2.68,6.33,8.71,6.7c0,0,15.06-5,19.37-18.39" fill="#ffa197"/><path d="M234.54,149.88s6.79-6.86,7.64-10.83l-1,9.49A7.78,7.78,0,0,1,234.54,149.88Z" fill="#cc6c62"/><path d="M231.33,131.14a84.89,84.89,0,0,1-8.61,12.79,33.94,33.94,0,0,1-5.5,5.15c-2.19,1.61-4.65,2.8-6.82,4.44-.51.38,0,1.25.5.86,2.28-1.72,4.86-3,7.15-4.68a34.56,34.56,0,0,0,5.38-5.07,86.26,86.26,0,0,0,8.77-13A.5.5,0,0,0,231.33,131.14Z" fill="#cc6c62"/><polygon points="111.89 180.75 111.89 187.39 115.97 187.39 111.89 180.75" fill="#d3514a"/><polygon points="225.31 211.62 225.3 205.96 221.71 210.48 225.31 211.62" fill="#d3514a"/><path d="M168.55,171.07l49.18,28.1s15.81,10.54,1.76,22.83-33.37,12.29-45.66,7-56.2-31.61-56.2-31.61-16.8-12.62,7-26.34A42.68,42.68,0,0,1,168.55,171.07Z" fill="#d3514a"/><path d="M168.55,165.66l49.18,28.1s15.81,10.54,1.76,22.83-33.37,12.29-45.66,7S117.62,192,117.62,192s-16.8-12.62,7-26.34A42.68,42.68,0,0,1,168.55,165.66Z" fill="#d3514a"/><path d="M111.89,143.46c.7,1.6,0,43.93,0,43.93l113.05,21.3V174.33" fill="#d3514a"/><polygon points="111.89 143.46 111.89 150.1 115.97 150.1 111.89 143.46" fill="#d3514a"/><polygon points="225.31 174.33 225.3 168.67 221.71 173.19 225.31 174.33" fill="#d3514a"/><path d="M168.55,133.78l49.18,28.1s15.81,10.54,1.76,22.83-33.37,12.29-45.66,7-56.2-31.61-56.2-31.61-16.8-12.62,7-26.34A42.68,42.68,0,0,1,168.55,133.78Z" fill="#d3514a"/><path d="M168.55,128.37l49.18,28.1s15.81,10.54,1.76,22.83-33.37,12.29-45.66,7-56.2-31.61-56.2-31.61-16.8-12.62,7-26.34A42.68,42.68,0,0,1,168.55,128.37Z" fill="#f1756b"/><polygon points="131.53 146.23 157.24 131.98 171.83 140.41 146.98 154.93 131.53 146.23" fill="#68e1fd"/><polygon points="171.27 165.56 193.57 153.19 206.24 160.5 184.67 173.1 171.27 165.56" fill="#68e1fd"/><polyline points="94.41 139.18 99.42 136.75 99.42 134.23 93.74 132.59" fill="#665265"/><rect x="99.25" y="132.7" width="2.66" height="105.28" transform="translate(201.17 370.69) rotate(-180)" fill="#42210b"/><path d="M99.61,187.94l21.47,43c.65,1.3,2.59.16,1.94-1.14l-21.47-43c-.65-1.3-2.59-.16-1.94,1.14Z" fill="#42210b"/><path d="M99.5,187.67,117.64,264c.33,1.41,2.5.81,2.17-.6l-18.14-76.31c-.33-1.41-2.5-.81-2.17.6Z" fill="#42210b"/><path d="M99.61,187,70.69,234.9A1.13,1.13,0,0,0,72.64,236l28.92-47.89A1.13,1.13,0,0,0,99.61,187Z" fill="#42210b"/><path d="M94.41,134.18v5l-8.18-4.4V122.62" fill="#42210b"/><ellipse cx="122.25" cy="113.2" rx="3.59" ry="4.82" transform="translate(-18.68 24.33) rotate(-10.56)" fill="#42210b"/><path d="M123.13,117.92a9.15,9.15,0,0,1-1.39,0,2.59,2.59,0,0,1-1.82-.84c-.3-.23-.57-.91-.87-1.14l-3.5,2-.85-4.51,3.82-.74,1.54-3.62" fill="#42210b"/><polygon points="97.92 136.75 86.23 130.44 86.23 114.75 97.98 121.37 97.92 136.75" fill="#42210b"/><polygon points="97.92 115.57 117.44 109.85 117.44 126.32 97.92 136.75 97.92 115.57" fill="#5e3a26"/><polygon points="86.23 114.75 106.77 103.35 117.44 109.85 97.98 121.37 86.23 114.75" fill="#5e3a26"/><polygon points="92.88 120.16 92.88 137.36 87.14 134.19 87.14 117.17 92.88 120.16" fill="#5e3a26"/><ellipse cx="121.42" cy="113.53" rx="3.59" ry="4.82" transform="translate(-18.75 24.18) rotate(-10.56)" fill="#42210b"/><ellipse cx="100.61" cy="177.69" rx="4.01" ry="1.19" fill="#42210b"/><ellipse cx="100.61" cy="186.85" rx="4.01" ry="1.19" fill="#42210b"/><polyline points="96.61 177.69 96.61 186.85 104.62 186.85 104.62 177.69" fill="#42210b"/><path d="M245.43,72l-.87,14.55-3.28-1.89-2.61-7.31c-.72-2-1.52-4.42-2.09-6.52l-.07,0c0,2-.11,4-.25,6.42L236,81.6l-2.87-1.66L234,65.4l3.64,2.1,2.55,7c.73,2,1.44,4.29,2,6.28l.07,0a57.89,57.89,0,0,1,.09-6.21l.26-4.25Z" fill="#fff"/><polygon points="256.67 78.49 256.51 81.19 251.12 78.08 250.94 81.1 256.02 84.03 255.86 86.71 250.78 83.77 250.57 87.22 256.25 90.5 256.08 93.2 247.28 88.12 248.15 73.57 256.67 78.49" fill="#fff"/><path d="M275.83,89.55,271.39,102l-3.38-2-.79-6.93c-.18-1.63-.32-3.11-.39-4.87-.39,1.47-.69,2.72-1.11,4L264,97.79l-3.42-2L258.2,79.37l3.34,1.93.69,6.61c.2,1.9.38,3.94.51,5.54.36-1.42.79-3,1.25-4.57l1.53-5.28,3.32,1.92.74,6.77c.21,1.88.34,3.57.44,5.3.35-1.47.75-3,1.15-4.56l1.48-5.31Z" fill="#fff"/><path d="M282.19,93a14.85,14.85,0,0,1,3.48,2.77L284.81,98A11.68,11.68,0,0,0,282,95.64c-1.36-.78-2.05-.51-2.1.24-.06.93.7,1.78,2.44,3.53,2.38,2.35,3.45,4.36,3.32,6.4-.15,2.44-2.05,3.48-5.85,1.29a15.93,15.93,0,0,1-3.86-3.15l.8-2.35a14.59,14.59,0,0,0,3.41,2.9c1.44.83,2.24.65,2.3-.31s-.58-1.8-2.2-3.39c-2.24-2.17-3.66-4.37-3.54-6.49C276.84,91.86,278.93,91.1,282.19,93Z" fill="#fff"/></svg>