<svg id="Layer_1" data-name="Layer 1" xmlns="http://www.w3.org/2000/svg" xmlns:xlink="http://www.w3.org/1999/xlink" viewBox="0 0 400 300"><defs><linearGradient id="linear-gradient" x1="286.3" y1="219.6" x2="225.93" y2="148.94" gradientUnits="userSpaceOnUse"><stop offset="0" stop-color="#42210b" stop-opacity="0"/><stop offset="1" stop-color="#662d91"/></linearGradient><linearGradient id="linear-gradient-2" x1="200" y1="152.1" x2="149.51" y2="93" xlink:href="#linear-gradient"/><linearGradient id="linear-gradient-3" x1="258.95" y1="195.64" x2="208.71" y2="136.83" xlink:href="#linear-gradient"/></defs><title>-</title><path d="M376.07,183.74,238,263.47a22.69,22.69,0,0,1-22.69,0L24.38,153.24a9.18,9.18,0,0,1,0-15.89l137-79.51a21.35,21.35,0,0,1,21.39,0L376.07,169.39A8.29,8.29,0,0,1,376.07,183.74Z" fill="#bcbcf7"/><path d="M149.73,79.32l1.15-19.93-2.47-1.24-3.3,2V80.21l2.35.7A8.39,8.39,0,0,1,149.73,79.32Z" fill="#6d0d4d"/><path d="M109.24,101.5a.5.5,0,0,1,.41-.35c.08-.25.14-.51.19-.77a.42.42,0,0,1,.23-.32l2.18-37.84-2.33-1.08-3.44,2.08v38.25c.82.36,1.55.69,2.35,1.1A9.39,9.39,0,0,1,109.24,101.5Z" fill="#6d0d4d"/><path d="M119.37,96.92a.38.38,0,0,1,.25-.2l2.57-44.56L119.91,51l-3.48,2.1V97c1,.36,1.46.5,2.35.85C118.85,97.59,119.27,97.16,119.37,96.92Z" fill="#6d0d4d"/><path d="M127.73,90.84c.13-.47.26-.41.63-.75a.48.48,0,0,1,.37-.11l1.91-33.22-2.29-1.13-3.48,2V90.84c.9.17,1.46.35,2.35.53Z" fill="#6d0d4d"/><path d="M139.27,85.11l1.49-25.86-2.47-1.14-3.3,2V85.92c.89.27,1.45.4,2.35.64A12.87,12.87,0,0,1,139.27,85.11Z" fill="#6d0d4d"/><path d="M101.15,105.45a.49.49,0,0,1,.7-.28l2.07-35.92-2.27-1.14-3.5,2.11v35.23c.93.39,1.43.63,2.34,1l.45-.37A4.33,4.33,0,0,1,101.15,105.45Z" fill="#6d0d4d"/><polyline points="92.93 54.19 90.47 52.95 87.16 54.95 87.16 112.05 89.51 113.21" fill="#6d0d4d"/><polygon points="296.77 174.11 335.91 198.17 258.68 243.28 218.73 220.02 296.77 174.11" fill="url(#linear-gradient)"/><path d="M302.87,172.87,173,98.34a9.1,9.1,0,0,0-9.12,0L94.55,138.94a5.35,5.35,0,0,0,0,9.25l128.5,74.35a12,12,0,0,0,12.15-.08l67.72-40.35A5.35,5.35,0,0,0,302.87,172.87Z" fill="#aa3679"/><path d="M302.87,167,173,92.48a9.1,9.1,0,0,0-9.12,0L94.55,133.07a5.35,5.35,0,0,0,0,9.25l128.5,74.35a12,12,0,0,0,12.15-.08l67.72-40.35A5.35,5.35,0,0,0,302.87,167Z" fill="#ffdddc"/><path d="M180.14,103.42c-.72.24-66.32,38.51-66.32,38.51l109.59,64.19,66.2-38.22Z" fill="#fff"/><path d="M120.76,127a1.69,1.69,0,0,1-.52-2.45,12.42,12.42,0,0,1,3.19-2.41c1.12-.7,2.29-1.31,3.43-2l8.83-5.17,7.24-4.24a3.75,3.75,0,0,1,3.21-.35,3.79,3.79,0,0,1,1.87,1.43,1.55,1.55,0,0,1-.7,2.22L134,121.79l-5.75,3.33-3.33,1.95a4,4,0,0,1-3.4.34A2.93,2.93,0,0,1,120.76,127Z" fill="#ff681d"/><ellipse cx="153.74" cy="107.04" rx="2.31" ry="1.91" fill="#ff681d"/><path d="M226.64,37.58l.66,0a9.8,9.8,0,0,0-3.59-1.26l-.35,0-.28,0h-.5a6.37,6.37,0,0,0-3.27.91h0c-2.86,1.5-5.36,4.73-6.47,8.88-1.76,6.54.59,12.86,5.24,14.11a6.72,6.72,0,0,0,4-.22,7.72,7.72,0,0,1-.46,4.15l1.55.61L225,61.23l-.73-.53A11,11,0,0,0,225.38,58a15.26,15.26,0,0,0,4.33-7.36C231.17,45.19,229.8,39.93,226.64,37.58Z" fill="#68e1fd"/><path d="M226.64,37.58l.66,0a9.8,9.8,0,0,0-3.59-1.26l-.35,0-.28,0h-.5a6.37,6.37,0,0,0-3.27.91h0c-2.86,1.5-5.36,4.73-6.47,8.88-1.76,6.54.59,12.86,5.24,14.11a6.72,6.72,0,0,0,4-.22,7.72,7.72,0,0,1-.46,4.15l1.55.61L225,61.23l-.73-.53A11,11,0,0,0,225.38,58a15.26,15.26,0,0,0,4.33-7.36C231.17,45.19,229.8,39.93,226.64,37.58Z" opacity="0.1"/><path d="M226,37.11c-4.66-1.25-9.86,3-11.61,9.58s.59,12.86,5.24,14.11a6.72,6.72,0,0,0,4-.22,7.72,7.72,0,0,1-.46,4.15,13,13,0,0,0,3.73-6.15,15.26,15.26,0,0,0,4.33-7.36C233,44.67,230.67,38.36,226,37.11Z" fill="#68e1fd"/><path d="M228.47,44.37c-.42-1.56-1.59-2.13-2.87-1.37-1.51.89-2.39,2.92-3,5-.41-1.67-1.13-3.1-2.64-2.75-1.26.3-2.53,1.77-3.11,3.56a5.08,5.08,0,0,0,2.93,6.7,3.54,3.54,0,0,0,3.6-.28,16.08,16.08,0,0,0,3.47-4C228.22,49.07,229,46.47,228.47,44.37Z" fill="#fff"/><ellipse cx="66.19" cy="111.28" rx="14.87" ry="12.26" transform="translate(-61.57 132.3) rotate(-68.6)" fill="#aa3679"/><ellipse cx="68.68" cy="112.25" rx="14.87" ry="12.26" transform="translate(-60.9 135.23) rotate(-68.6)" fill="#ff681d"/><path d="M64.43,106.13v12a.8.8,0,0,0,1.29.62l9.56-7.65a.8.8,0,0,0-.17-1.35l-9.56-4.34A.8.8,0,0,0,64.43,106.13Z" fill="#fff"/><path d="M89.51,56.69v56.52L92.93,111V54.19Z" fill="#aa3679"/><path d="M100.5,71.25v35.22l3.43-2.14V69.25C102.77,69.91,101.62,70.56,100.5,71.25Z" fill="#aa3679"/><path d="M108.83,64.49v38.08l3.42-2.19V62.23C111.13,63,110,63.78,108.83,64.49Z" fill="#aa3679"/><path d="M118.78,54.41V97.83l3.42-2.19V52.16C121.06,52.93,119.94,53.7,118.78,54.41Z" fill="#aa3679"/><path d="M127.23,58.62V91.36l3.42-2.19V56.76Q129,57.72,127.23,58.62Z" fill="#aa3679"/><path d="M137.34,61.35v25.2l3.42-2.19V59.25Q139.08,60.33,137.34,61.35Z" fill="#aa3679"/><path d="M149.76,60.07c-.76.51-1.52,1-2.3,1.49V80.91l3.42-2.19V59.39C150.5,59.61,150.12,59.83,149.76,60.07Z" fill="#aa3679"/><polygon points="187.36 122.89 227.4 146.22 197.53 163.67 157.59 140.4 187.36 122.89" opacity="0.57" fill="url(#linear-gradient-2)"/><path d="M197.26,133.76a6.15,6.15,0,0,0-.19-1.28c-.73-3.45-4.17-11.6-20.27-12.2-18.83-.71-22.29,8.89-22.92,12.44a6.12,6.12,0,0,0-.13,1c0,.18,0,.28,0,.28,0,6.29,9.75,11.38,21.77,11.38s21.77-5.1,21.77-11.38C197.28,134,197.28,133.91,197.26,133.76Z" fill="#68e1fd"/><path d="M164.8,135.46c-3.64-6.13.38-11.86,5.89-15-13.5,1.34-16.25,9.15-16.81,12.27a6.12,6.12,0,0,0-.13,1c0,.18,0,.28,0,.28,0,6.29,9.75,11.38,21.77,11.38a41.12,41.12,0,0,0,4.75-.27C174,144.11,168.21,141.21,164.8,135.46Z" opacity="0.1"/><path d="M175.29,129.44a3.41,3.41,0,0,0,3.53-1.23l3.62-19.57-6.13-1.13-3.75,20.29A4.78,4.78,0,0,0,175.29,129.44Z" fill="#42210b"/><path d="M168.43,77.79q-.69,4.59-1.37,9.18c-.33,2.22-.72,4.58-1.06,6.85a53.55,53.55,0,0,0-.78,7.09c.15,6.95,6.63,11.24,13.06,12.28,0,0,12.46,1.6,16.23-9S199,79.55,199,79.55" fill="#aa3679"/><ellipse cx="183.59" cy="79.55" rx="15.4" ry="10.02" fill="#ffa4df"/><path d="M169.72,86.73s1.09-2.25,4-1.17S175.94,92,175.94,92s-1.81,8.69-1.94,10.83-1.78,8.68,1.93,9.89a3.5,3.5,0,0,1-3,.28c-1.9-.54-1.79-10.21-1.79-10.21" fill="#6d2f0c"/><path d="M167.61,93.78c.16-.85.32-1.7.48-2.54.41-2.23,1.37-6.57,4.58-5.15,1.9.85,2.25,3.75,2.25,3.75.24,2.1-.76,4.53-1.14,6.58a94.25,94.25,0,0,0-1.28,10c-.19,2.48-.41,5.36,2,6.87a6.86,6.86,0,0,0-1.6-.32,19.3,19.3,0,0,1-1.9-.54c-3.86-1.33-5.11-4.77-4.91-8.6A69.78,69.78,0,0,1,167.61,93.78Z" fill="#42210b"/><circle cx="171.67" cy="90.34" r="1.52" fill="#b54747"/><path d="M199.08,63.92s2.66-13.34-9.8-15.1-14.08,9.75-14.08,9.75-2.12,12.91-3.16,19h0a5.3,5.3,0,0,0-.09,1c0,4.42,5.51,8,12.31,8,6.16,0,11.24-2.94,12.15-6.78h0l0-.23c0-.1,0-.2,0-.3Z" fill="#68e1fd"/><polygon points="243.19 170.23 283.58 192.03 259.32 205.01 219.38 181.75 243.19 170.23" opacity="0.55" fill="url(#linear-gradient-3)"/><polyline points="238.07 176.67 242.27 174.66 240.57 170.23 237.28 171.56" fill="#68351f"/><path d="M243.48,165.07h-4.73c-.1,1.91-.53,4.25-2.18,5-.65.39-3.18,1.16-4,.85s-3.4-.95-3.71-.71-1.51.95.91,3.12,7.63,3.61,8.33,3.38-.86-4.55,1.09-3.89c2.13.72.9,5.45,1.22,5.83a7,7,0,0,0,2.13.85,16.59,16.59,0,0,0,1.58-.91C244.16,174.05,243.81,169.56,243.48,165.07Z" fill="#ff681d"/><polyline points="227.18 184.63 231.37 182.62 229.67 178.18 226.39 179.52" fill="#68351f"/><path d="M233.21,171.58,227.86,173c-.15,3-1.15,5.13-4.3,5.72-1.31.24-2.32-.24-3.56-.46a1.92,1.92,0,0,0-1.89.55c-.73.87,0,1.79.74,2.42,2.41,2.18,7.63,3.61,8.33,3.38s-.86-4.55,1.09-3.89c2.13.72.9,5.45,1.22,5.83a7,7,0,0,0,2.13.85,16.59,16.59,0,0,0,1.58-.91C233.27,182,233.54,176.08,233.21,171.58Z" fill="#ff681d"/><path d="M220.3,107.94a54,54,0,0,1-10.91-2.32l-.11-.07c-.86-.62-1.64-1.33-2.54-1.9a1.86,1.86,0,0,0-1.5,0c-.43.21-.33.84-.22,1.21a2.62,2.62,0,0,0,1.28,1.42l0,0c-2.07-.22-4.06-1.08-6.2-.71-.68.12-.52,1,0,1.23s2.76.65,3.29.82c-.81,0-3.35-.29-4.16-.26a.64.64,0,0,0-.17,1.25,24,24,0,0,0,4.53.58,27.18,27.18,0,0,0-3.72,1c-.59.28-.27,1.18.32,1.18a34.81,34.81,0,0,0,4.43-.29c-.31.16-1.54.37-1.85.55a.64.64,0,0,0,.15,1.16c1.56.3,3-.27,4.59-.48.74-.1,1.48-.15,2.22-.19,2.72.45,5.45.84,8.2,1.1.6.06.75-.62.47-1a.2.2,0,0,0-.16-.23l-.43-.1a.25.25,0,0,0,0-.08.26.26,0,0,0,0-.19l1.21.2a.64.64,0,0,0,.34-1.23c-.28-.12-.57-.2-.86-.3a.73.73,0,0,0,0-.15l.16,0a.23.23,0,0,0,.12-.45l-.83-.31a.76.76,0,0,0,.13-.19q.84.25,1.67.57c.28.11.4-.34.12-.45L219,109h0c.28.09.4-.35.12-.45-.63-.21-1.25-.41-1.88-.6q1.5.25,3,.41C220.59,108.43,220.59,108,220.3,107.94Z" fill="#ffe4d7"/><path d="M239.63,108.25s5.59,5.92,4.63,24.74c-.76,14.76,2.07,29.6,1.7,30.17s-3.29,7.87-11,5.95l-2.38-56.67" fill="#68e1fd"/><path d="M224.93,115.67c-.31,2-3.64,13.07-3.83,38.2-.06,7.43,1.69,21,1.69,21s6.54,3.52,13,0,3.9-8.46,3.9-8.46L238.16,146l-1.42-34.27" fill="#68e1fd"/><path d="M230.14,116.2a28,28,0,0,1-13.16-.49c-1.1-.34-5.14-1.06-5.8-2.09-1-1.5.83-7.7.83-7.7.8-.28,10.06,1.19,10.46,0s.07-6,.07-9.09,7.21-7.69,7.57-7.93c0,0,5.3-4.58,8.52-3.93s2.74,17.23,1.69,22.6C239.36,112.53,235.07,115.15,230.14,116.2Z" fill="#aa3679"/><path d="M224.67,76.21s-.51,9.6,1.05,10.59,4.78-.59,5.5-2.16.26-1.93-1.4-2.23-.49-.14-1.46-.68C226.31,80.6,230.19,75.66,224.67,76.21Z" fill="#ffe4d7"/><path d="M231.83,86.84a50.94,50.94,0,0,0,3.36-12.72,4.88,4.88,0,0,0-1.3-.95A8,8,0,0,0,226,72.5a4.44,4.44,0,0,0-1.83,7,20.43,20.43,0,0,1,3.28,5.71,3.58,3.58,0,0,0,1,1.79v0h0a2.12,2.12,0,0,0,.9.32A3.9,3.9,0,0,0,231.83,86.84Z" fill="#ff681d"/><path d="M227.42,85.18A18.44,18.44,0,0,1,226,94c-1.36,3.11,2.12,3.4,2.5,4.79s-3.86,4.17,1.58,6.18c2.91,1.07,6.13-.28,8.58-1.85,2.7-1.73,5.56-3.71,5.76-7.21.14-2.45-1-4.68-2.08-6.81a42.13,42.13,0,0,1-2.52-7.2,19.72,19.72,0,0,0-4.34-8.41c-1.73-1.81-4.4-2.14-6.72-1.77" fill="#ff681d"/><ellipse cx="226.5" cy="83.05" rx="3.15" ry="3.5" fill="#57548b"/><path d="M226.61,79.55A2.89,2.89,0,0,0,225,80a4.2,4.2,0,0,1,2.81,3.61,3.14,3.14,0,0,1-1,2.58,3,3,0,0,1-.42.31l.19,0a3.52,3.52,0,0,0,0-7Z" fill="#2e2e60"/><path d="M228.35,73.5a6.05,6.05,0,0,1,.52-.9,2.74,2.74,0,0,1,3.28-.77h.1c-1-1.41-3.29-1.33-4.71-.68a5.58,5.58,0,0,0-2.87,4.27,10.05,10.05,0,0,0,0,3.22c0,.12.18,1.37.32,1.4l2.69.51a10.3,10.3,0,0,1,0-5.13A10.71,10.71,0,0,1,228.35,73.5Z" fill="#2e2e60"/></svg>